# xmcd
#
# Track frame offsets:
#	150
#	10849
#	28391
#	54861
#	68678
#	81525
#	99366
#	118348
#	137552
#	155208
#	173674
#	193474
#	214919
#	239831
#
# Disc length: 3446 seconds
#
# Revision: 1
# Processed by: cddbd v1.5.2PL0 Copyright (c) Steve Scherf et al.
# Submitted via: audiograbber 1.83.01
#
DISCID=d10d740e
DTITLE=Various Artist - ''Well I Love It!'' - Macca's Australia All Over [Disc
DTITLE=2]
DYEAR=2014
DGENRE=Country
TTITLE0=Digger Revell - Sunday With Macca
TTITLE1=Junior - November
TTITLE2=Don Walker - Young Girls
TTITLE3=Jane Saunders - Days Like These
TTITLE4=Gary Shearston - She's A Classic
TTITLE5=Normie Rowe - Living Underneath The Southern Cross
TTITLE6=Doug Ashdown - If Wishes Were Horses
TTITLE7=Ron McIntyre - Queensland
TTITLE8=Ian Simpson and John Kane - Under The Milky Way
TTITLE9=Neil Murray - Coolamon Moon
TTITLE10=Carmel Charlton - Whispers On the Wind
TTITLE11=Michael Kennedy - The Adelaide
TTITLE12=Ken McDonald's Billion Raindrop Band - The North Wind
TTITLE13=Ian McNamara - We The People
EXTD=
EXTT0=
EXTT1=
EXTT2=
EXTT3=
EXTT4=
EXTT5=
EXTT6=
EXTT7=
EXTT8=
EXTT9=
EXTT10=
EXTT11=
EXTT12=
EXTT13=
PLAYORDER=
